<svg width="647" height="601" viewBox="0 0 647 601" fill="none" xmlns="http://www.w3.org/2000/svg">
<path d="M596.929 593.188H592.873C592.466 593.187 592.065 593.085 591.707 592.89C591.35 592.695 591.046 592.413 590.826 592.071C590.605 591.728 590.473 591.336 590.443 590.93C590.413 590.523 590.486 590.116 590.654 589.745L600.474 568.074L585.729 567.746L580.351 574.262C579.326 575.551 578.507 576.125 576.42 576.125H573.69C573.258 576.139 572.829 576.048 572.439 575.861C572.049 575.674 571.71 575.396 571.451 575.049C571.088 574.56 570.732 573.732 571.079 572.549L574.099 561.733C574.121 561.652 574.149 561.572 574.179 561.492C574.181 561.485 574.181 561.477 574.179 561.47C574.148 561.39 574.121 561.31 574.099 561.227L571.076 550.342C570.749 549.183 571.107 548.373 571.466 547.896C571.708 547.575 572.021 547.316 572.381 547.139C572.74 546.962 573.137 546.871 573.538 546.875H576.42C577.979 546.875 579.492 547.574 580.381 548.703L585.648 555.109L600.474 554.89L590.657 533.257C590.489 532.886 590.416 532.479 590.446 532.072C590.475 531.666 590.606 531.274 590.827 530.931C591.047 530.588 591.35 530.306 591.708 530.111C592.065 529.916 592.466 529.813 592.873 529.812H596.973C597.545 529.824 598.107 529.964 598.617 530.223C599.128 530.481 599.573 530.851 599.921 531.305L618.971 554.462L627.772 554.23C628.417 554.195 630.202 554.183 630.615 554.183C639.034 554.188 644.061 556.921 644.061 561.5C644.061 562.941 643.485 565.613 639.632 567.313C637.358 568.319 634.323 568.828 630.612 568.828C630.204 568.828 628.423 568.816 627.769 568.781L618.97 568.546L599.872 591.702C599.524 592.154 599.079 592.523 598.57 592.78C598.06 593.037 597.499 593.176 596.929 593.188Z" fill="#11537B"/>
<path d="M0 2C157.5 48.1667 471.5 166 504.5 127C564.719 55.8318 500.167 2.00019 419 2C352 1.99985 318 38 310 153C303.503 246.396 92.2454 308.745 63 275C43.5 252.5 46 115 149 104C218.107 96.6198 304.763 258.283 285.5 321C264 391 78 456 132 496.5C190 509 419 422.5 419 391C419 340.5 377 333.5 350 358C323 382.5 334 475.5 363.5 496.5C389.999 515.363 530 559.5 563 562" stroke="#11537B" stroke-width="4" stroke-dasharray="17 17"/>
</svg>
