<svg width="654" height="581" viewBox="0 0 654 581" fill="none" xmlns="http://www.w3.org/2000/svg">
<path d="M1.25684 455C105.257 371 299.257 381 407.757 471C432.905 491.86 448.757 537.5 419.757 564C377.971 602.183 323.548 560.221 314.757 516C298.257 433 550.958 334 531.257 285.5C506.884 225.5 413.757 266.5 432.257 303C447.057 332.2 524.757 417.745 584.757 412C670.757 403.766 672.669 196.172 596.257 151C505.757 97.5001 224.491 376.218 151.757 285.5C60.7569 172 399.757 35.0001 564.757 39.0001" stroke="#11537B" stroke-width="4" stroke-dasharray="17 17"/>
<path d="M602.186 70.6875H598.13C597.723 70.6874 597.322 70.5851 596.964 70.39C596.606 70.1949 596.303 69.9132 596.082 69.5708C595.862 69.2283 595.73 68.8359 595.7 68.4295C595.67 68.0232 595.743 67.6157 595.911 67.2445L605.731 45.5736L590.985 45.2461L585.608 51.7618C584.582 53.0507 583.764 53.625 581.677 53.625H578.947C578.515 53.6389 578.086 53.5484 577.696 53.3612C577.306 53.174 576.967 52.8955 576.708 52.5495C576.345 52.0604 575.989 51.2317 576.336 50.0495L579.355 39.2331C579.378 39.1523 579.406 39.0716 579.436 38.9924C579.438 38.9848 579.438 38.9771 579.436 38.9695C579.405 38.8904 579.378 38.8095 579.355 38.7273L576.333 27.8423C576.005 26.683 576.363 25.8725 576.723 25.3957C576.964 25.0754 577.278 24.8161 577.637 24.6388C577.997 24.4616 578.394 24.3712 578.795 24.375H581.677C583.236 24.375 584.748 25.0743 585.638 26.2031L590.905 32.6092L605.731 32.3898L595.914 10.757C595.745 10.386 595.673 9.97865 595.702 9.57231C595.732 9.16597 595.863 8.77355 596.084 8.43094C596.304 8.08832 596.607 7.80644 596.965 7.61106C597.322 7.41568 597.723 7.31303 598.13 7.3125H602.23C602.802 7.32399 603.364 7.46418 603.874 7.72264C604.384 7.9811 604.83 8.35121 605.178 8.80547L624.228 31.9617L633.029 31.7302C633.674 31.6951 635.459 31.6829 635.872 31.6829C644.29 31.6875 649.318 34.4205 649.318 39C649.318 40.4412 648.742 43.1133 644.889 44.8134C642.615 45.8189 639.58 46.3277 635.869 46.3277C635.461 46.3277 633.68 46.3155 633.026 46.2805L624.227 46.0459L605.129 69.2021C604.781 69.6544 604.336 70.0227 603.826 70.2798C603.317 70.5369 602.756 70.6762 602.186 70.6875Z" fill="#11537B"/>
</svg>
