<svg width="20" height="20" viewBox="0 0 20 20" fill="none" xmlns="http://www.w3.org/2000/svg">
<path d="M10 3.33317C8.15905 3.33317 6.66667 4.82555 6.66667 6.6665C6.66667 8.50745 8.15905 9.99984 10 9.99984C11.8409 9.99984 13.3333 8.50745 13.3333 6.6665C13.3333 4.82555 11.8409 3.33317 10 3.33317ZM5 6.6665C5 3.90508 7.23858 1.6665 10 1.6665C12.7614 1.6665 15 3.90508 15 6.6665C15 9.42793 12.7614 11.6665 10 11.6665C7.23858 11.6665 5 9.42793 5 6.6665ZM6.66667 14.9998C5.28595 14.9998 4.16667 16.1191 4.16667 17.4998C4.16667 17.9601 3.79357 18.3332 3.33333 18.3332C2.8731 18.3332 2.5 17.9601 2.5 17.4998C2.5 15.1986 4.36548 13.3332 6.66667 13.3332H13.3333C15.6345 13.3332 17.5 15.1987 17.5 17.4998C17.5 17.9601 17.1269 18.3332 16.6667 18.3332C16.2064 18.3332 15.8333 17.9601 15.8333 17.4998C15.8333 16.1191 14.714 14.9998 13.3333 14.9998H6.66667Z" fill="#C6CCD2"/>
</svg>
